<svg xmlns="http://www.w3.org/2000/svg" viewBox="0 0 12.361 13.451">
  <defs>
    <style>
      .cls-1 {
        fill: #fff;
        opacity: 0.5;
      }
    </style>
  </defs>
  <path id="Path_4307" data-name="Path 4307" class="cls-1" d="M15.957,9.273a2.241,2.241,0,1,0-1.5-3.894l-2.477-.99a1.919,1.919,0,0,0,.056-.438,1.961,1.961,0,1,0-.614,1.423l2.415.965a2.076,2.076,0,0,0-.077,1.121L9.97,9.14a2.248,2.248,0,1,0-.356,2.907l2.477.99a1.919,1.919,0,0,0-.056.438,1.961,1.961,0,1,0,.614-1.423l-2.415-.958a2.232,2.232,0,0,0,.12-.7c0-.064-.014-.125-.02-.188l3.922-1.74a2.227,2.227,0,0,0,1.7.807ZM8.112,11.515a1.121,1.121,0,1,1,1.121-1.121A1.121,1.121,0,0,1,8.112,11.515ZM14,12.635a.841.841,0,1,1-.841.841.815.815,0,0,1,.043-.266A.841.841,0,0,1,14,12.635Zm1.961-6.724a1.121,1.121,0,1,1-1.121,1.121A1.121,1.121,0,0,1,15.957,5.911ZM10.073,4.791a.841.841,0,1,1,.841-.841.815.815,0,0,1-.043.266A.841.841,0,0,1,10.073,4.791Z" transform="translate(-5.85 -1.987)"/>
</svg>
