<svg xmlns="http://www.w3.org/2000/svg" viewBox="0 0 176 171">
  <defs>
    <style>
      .cls-1 {
        fill: #dfdfdf;
      }
    </style>
  </defs>
  <g id="pause" transform="translate(-0.001)">
    <g id="Group_1" data-name="Group 1" transform="translate(0.001)">
      <path id="Path_1" data-name="Path 1" class="cls-1" d="M66,0H7.335A7.15,7.15,0,0,0,2.178,2.115,6.751,6.751,0,0,0,0,7.124V163.874a6.75,6.75,0,0,0,2.177,5.009A7.155,7.155,0,0,0,7.335,171H66a7.15,7.15,0,0,0,5.156-2.117,6.749,6.749,0,0,0,2.177-5.009V7.124a6.745,6.745,0,0,0-2.178-5.009A7.147,7.147,0,0,0,66,0Z" transform="translate(-0.001)"/>
      <path id="Path_2" data-name="Path 2" class="cls-1" d="M326.966,2.115A7.148,7.148,0,0,0,321.811,0H263.143a7.144,7.144,0,0,0-5.156,2.115,6.748,6.748,0,0,0-2.18,5.009V163.874a6.748,6.748,0,0,0,2.18,5.009A7.144,7.144,0,0,0,263.143,171h58.668a7.152,7.152,0,0,0,5.156-2.117,6.752,6.752,0,0,0,2.176-5.009V7.124A6.75,6.75,0,0,0,326.966,2.115Z" transform="translate(-153.143)"/>
    </g>
  </g>
</svg>
