<svg id="vol" xmlns="http://www.w3.org/2000/svg" viewBox="0 0 76 72">
  <defs>
    <style>
      .cls-1 {
        fill: #dfdfdf;
      }

      .cls-2 {
        fill: none;
      }
    </style>
  </defs>
  <path id="Path_7" data-name="Path 7" class="cls-1" d="M45.75,30a13.453,13.453,0,0,0-7.917-12.09v6.63l7.758,7.35A12.043,12.043,0,0,0,45.75,30Zm7.917,0a19.6,19.6,0,0,1-1.71,7.92l4.782,4.53A25.289,25.289,0,0,0,60,30C60,17.16,50.532,6.42,37.833,3.69V9.87C46.985,12.45,53.667,20.49,53.667,30ZM7.022,3,3,6.81,17.978,21H3V39H15.667L31.5,54V33.81L44.958,46.56a22.367,22.367,0,0,1-7.125,3.54v6.18a29.129,29.129,0,0,0,11.685-5.43L55.978,57,60,53.19l-28.5-27ZM31.5,6l-6.618,6.27L31.5,18.54Z" transform="translate(6.5 6)"/>
  <path id="Path_8" data-name="Path 8" class="cls-2" d="M0,0H76V72H0Z"/>
</svg>
