<svg xmlns="http://www.w3.org/2000/svg" viewBox="0 0 15.193 11.566">
  <defs>
    <style>
      .cls-1 {
        fill: #fff;
      }
    </style>
  </defs>
  <path id="Path_4293" data-name="Path 4293" class="cls-1" d="M14.35,1.69H6.545a.852.852,0,0,1-.677-.336L5.11.34A.85.85,0,0,0,4.433,0H.843A.842.842,0,0,0,0,.843v9.88a.842.842,0,0,0,.843.843H14.35a.842.842,0,0,0,.843-.843V2.533A.84.84,0,0,0,14.35,1.69Zm-.815,5.353a.222.222,0,0,1-.223.223H11.161V9.418a.222.222,0,0,1-.223.223H10.03a.222.222,0,0,1-.223-.223V7.266H7.655a.222.222,0,0,1-.223-.223V6.135a.222.222,0,0,1,.223-.223H9.807V3.761a.222.222,0,0,1,.223-.223h.908a.222.222,0,0,1,.223.223V5.913h2.152a.222.222,0,0,1,.223.223Z"/>
</svg>
