<svg xmlns="http://www.w3.org/2000/svg" viewBox="0 0 347 204"><defs><style>.a{fill:none;}.b{fill:#121212;stroke:#303030;stroke-miterlimit:10;stroke-width:5px;}.c{opacity:0.18;}.d{fill:#fff;}</style></defs><g transform="translate(-7530 17862)"><rect class="a" width="347" height="204" transform="translate(7530 -17862)"/><g transform="translate(7531.5 -17854.5)"><path class="b" d="M121.8,94.9V41.3a9.136,9.136,0,0,1,8.9-9.3H194a9.407,9.407,0,0,1,6.5,2.6c6.5,6.3,12.9,12.7,19.4,19a8.913,8.913,0,0,1,2.8,6.7v88.5a9.14,9.14,0,0,1-8.8,9.1H131.2a8.93,8.93,0,0,1-9.4-9.3Z"/><g class="c"><path class="d" d="M152.5,85.4l-2.6,9.3h-8.5l11.1-36.4h10.8l11.3,36.4h-8.9l-2.8-9.3Zm9.2-6.2-2.3-7.7c-.6-2.2-1.3-4.9-1.8-7h-.1c-.5,2.2-1.1,4.9-1.7,7l-2.2,7.7Z"/><path class="d" d="M184.7,84.2c.3,3.4,3.6,5,7.4,5a23.333,23.333,0,0,0,7.3-1.1l1.1,5.6a25.764,25.764,0,0,1-9.6,1.6c-9,0-14.1-5.2-14.1-13.4,0-6.7,4.2-14.1,13.3-14.1,8.5,0,11.8,6.6,11.8,13.2a19.13,19.13,0,0,1-.3,3.2H184.7Zm9.7-5.7c0-2-.9-5.3-4.6-5.3-3.5,0-4.9,3.1-5.1,5.3Z"/></g><g class="c"><path class="d" d="M150.6,128.4l-2.1,6.4h-2.7l7-20.5H156l7,20.5h-2.8l-2.2-6.4Zm6.7-2.1-2-5.9a36.809,36.809,0,0,1-1.1-3.7h-.1c-.3,1.2-.6,2.5-1,3.7l-2,5.9Z"/><path class="d" d="M178,125.2h-8v7.4h8.9v2.2H167.4V114.3h11.1v2.2h-8.4V123h8v2.2Z"/><path class="d" d="M183.9,114.5a32.916,32.916,0,0,1,5.1-.4c2.6,0,4.5.6,5.7,1.7a5.708,5.708,0,0,1,1.8,4.3,5.816,5.816,0,0,1-1.6,4.4,8.541,8.541,0,0,1-6.3,2.3,6.816,6.816,0,0,1-2.1-.2v8.2h-2.6V114.5Zm2.6,9.9a7.165,7.165,0,0,0,2.2.2c3.2,0,5.1-1.6,5.1-4.4,0-2.7-1.9-4-4.8-4a12.941,12.941,0,0,0-2.5.2Z"/></g></g></g></svg>