<svg xmlns="http://www.w3.org/2000/svg" width="51.523" height="35.547" viewBox="0 0 51.523 35.547">
  <path id="Path_6" data-name="Path 6" d="M48.362,7.375,42.081,1.422a5.336,5.336,0,0,0-7.308,0L7.636,27.04a.66.66,0,0,1-1.108-.493V14.929A3.325,3.325,0,0,1,7.6,12.466L12.4,7.95a1.32,1.32,0,0,1,1.765,0l5.46,5.132L24.3,8.607l-7.6-7.184a5.336,5.336,0,0,0-7.308,0L3.12,7.375A9.754,9.754,0,0,0,0,14.559V29.544A6.064,6.064,0,0,0,1.888,33.9h0a5.753,5.753,0,0,0,7.965,0L37.359,7.95a1.319,1.319,0,0,1,1.765,0l4.8,4.516A3.413,3.413,0,0,1,45,14.929V26.547a.66.66,0,0,1-1.108.493L31.94,15.873l-4.762,4.475L41.629,33.937a5.845,5.845,0,0,0,8.006,0,5.994,5.994,0,0,0,1.888-4.352V14.6A9.972,9.972,0,0,0,48.362,7.375Z" transform="translate(0 0.025)" fill="#fff" fill-rule="evenodd"/>
</svg>
