<svg xmlns="http://www.w3.org/2000/svg" viewBox="0 0 13.2 13.358">
  <defs>
    <style>
      .cls-1 {
        fill: #fff;
      }
    </style>
  </defs>
  <g id="noun_958222_cc" transform="translate(-10.8 -3.9)">
    <path id="Path_3871" data-name="Path 3871" class="cls-1" d="M22.048,3.9h-9.3A1.946,1.946,0,0,0,10.8,5.852v9.455a1.946,1.946,0,0,0,1.952,1.952h9.3A1.946,1.946,0,0,0,24,15.306V5.852A1.946,1.946,0,0,0,22.048,3.9Zm-8.5,3.624h3.815a.532.532,0,0,1,0,1.065H13.55a.534.534,0,0,1-.532-.532A.523.523,0,0,1,13.55,7.524Zm6.884,6.458H13.461a.532.532,0,0,1,0-1.065h6.973a.532.532,0,1,1,0,1.065Zm0-2.7H13.461a.532.532,0,0,1,0-1.065h6.973a.532.532,0,1,1,0,1.065Z" transform="translate(0 0)"/>
  </g>
</svg>
