<svg xmlns="http://www.w3.org/2000/svg" viewBox="0 0 13.086 9.964">
  <defs>
    <style>
      .cls-1 {
        fill: #fff;
      }
    </style>
  </defs>
  <g id="noun_1594034_cc" transform="translate(-69.838 575.195)">
    <g id="Group_3018" data-name="Group 3018" transform="translate(69.838 -575.195)">
      <g id="Group_3017" data-name="Group 3017" transform="translate(0 0)">
        <path id="Path_3731" data-name="Path 3731" class="cls-1" d="M14.727,19h3.09a.727.727,0,0,1,.582.291l.654.872h0a.727.727,0,0,0,.582.291h6.724a.727.727,0,0,1,.727.727v7.056h0a.727.727,0,0,1-.727.727H14.727A.727.727,0,0,1,14,28.237v-8.51h0A.727.727,0,0,1,14.727,19Z" transform="translate(-14 -19)"/>
      </g>
    </g>
  </g>
</svg>
