<svg xmlns="http://www.w3.org/2000/svg" viewBox="0 0 13.748 13.643"><defs><style>.a{fill:#fff;}</style></defs><g transform="translate(115.549 240.114)"><g transform="translate(-115.549 -240.114)"><path class="a" d="M15.737,13.4c0-.019.005-.035,0-.051L14.365,4.479a.687.687,0,0,0-.679-.579H4.062a.687.687,0,0,0-.679.579L2.008,13.348a.311.311,0,0,0,0,.051A.348.348,0,0,0,2,13.451v3.41a.686.686,0,0,0,.687.682H15.061a.686.686,0,0,0,.687-.682v-3.41A.44.44,0,0,0,15.737,13.4Zm-4.674-.631a.134.134,0,0,0-.133.13,2.065,2.065,0,0,1-4.119,0,.136.136,0,0,0-.133-.13H3.488l1.164-7.5H13.1l1.164,7.5Z" transform="translate(-2 -3.9)"/><path class="a" d="M158.99,107.046l-.885.88v-2.444a.687.687,0,0,0-1.375,0v2.447l-.882-.877a.693.693,0,0,0-.972,0,.678.678,0,0,0,0,.963l2.057,2.041a.693.693,0,0,0,.974,0l2.06-2.043a.678.678,0,0,0,0-.963A.7.7,0,0,0,158.99,107.046Z" transform="translate(-150.543 -102.069)"/></g></g></svg>