<svg xmlns="http://www.w3.org/2000/svg" viewBox="0 0 15.193 11.566">
  <defs>
    <style>
      .cls-1 {
        fill: #fff;
      }
    </style>
  </defs>
  <path id="Path_4298" data-name="Path 4298" class="cls-1" d="M14.35,1.69H6.545a.852.852,0,0,1-.677-.336L5.11.34A.85.85,0,0,0,4.433,0H.843A.842.842,0,0,0,0,.843v9.88a.842.842,0,0,0,.843.843H14.35a.842.842,0,0,0,.843-.843V2.533A.84.84,0,0,0,14.35,1.69Zm-.644,5.293L10.257,9.726a.262.262,0,0,1-.426-.207V7.732a.263.263,0,0,0-.263-.263H6.14a.263.263,0,0,1-.263-.263V6.334a.263.263,0,0,1,.263-.263H9.568a.263.263,0,0,0,.263-.263V4.032a.264.264,0,0,1,.426-.207l3.449,2.744A.263.263,0,0,1,13.706,6.982Z"/>
</svg>
