<svg xmlns="http://www.w3.org/2000/svg" viewBox="0 0 14.494 12.314">
  <defs>
    <style>
      .cls-1 {
        fill: #fff;
      }
    </style>
  </defs>
  <g id="noun_74968_cc" transform="translate(-44.049 62.522)">
    <g id="Group_3160" data-name="Group 3160" transform="translate(44.049 -62.522)">
      <path id="Union_141" data-name="Union 141" class="cls-1" d="M.3,12.314c-.171,0-.3-.1-.3-.236V4.168a.284.284,0,0,1,.3-.236H10.32a.274.274,0,0,1,.3.236v7.91c0,.135-.128.236-.3.236Zm11.123-9.2a.13.13,0,0,0-.143-.112H2.072V2.24A.274.274,0,0,1,2.371,2l9.834-.028a.284.284,0,0,1,.3.236v7.91c0,.135-.129.236-.3.236l-.783.028Zm1.984,5.3V1.147a.13.13,0,0,0-.143-.113L3.937,1V.236A.274.274,0,0,1,4.236,0l9.958.033a.284.284,0,0,1,.3.236V8.18c0,.135-.128.236-.3.236Z" transform="translate(0)"/>
    </g>
  </g>
</svg>
