<svg xmlns="http://www.w3.org/2000/svg" viewBox="0 0 347 202.5"><defs><style>.a{fill:rgba(255,255,255,0);}.b{fill:#121212;stroke:#303030;stroke-miterlimit:10;stroke-width:5px;}.c{fill:#303030;}</style></defs><g transform="translate(-7623 18036)"><rect class="a" width="347" height="202.5" transform="translate(7623 -18036)"/><path class="b" d="M121.83,94.94V41.26A9.07,9.07,0,0,1,131.12,32H194a9,9,0,0,1,6.46,2.62q9.71,9.51,19.39,19.05a9,9,0,0,1,2.79,6.73q0,44.26,0,88.53a9.08,9.08,0,0,1-8.76,9.06H131.23a9.16,9.16,0,0,1-9.15-7,10.28,10.28,0,0,1-.24-2.34Q121.82,121.8,121.83,94.94Z" transform="translate(7626.5 -18031.5)"/><path class="c" d="M198.91,70c-.06-1.74,0-3.48,0-5.22,0-.62-.14-.88-.8-.82-1.42.12-2.86.14-4.28.3a42.58,42.58,0,0,0-10.32,2.48.82.82,0,0,0-.62,1,13.325,13.325,0,0,1,.13,1.78V83.26h0V97.57c0,.67.17.93.89.92h5.51c1.16,0,1.16,0,1.16-1.13V72.54c0-.7.2-1,.85-1.09,2.21-.2,4.4-.41,6.62-.55C198.67,70.77,198.94,70.7,198.91,70Z" transform="translate(7626.5 -18031.5)"/><path class="c" d="M198.78,120.79H195.5V135.6a9.54,9.54,0,0,1-.15,1.77,2,2,0,0,1-2.06,1.82h-1.22V142a5.05,5.05,0,0,0,6.55-4.05,9.8,9.8,0,0,0,.16-1.71V120.79Z" transform="translate(7626.5 -18031.5)"/><path class="c" d="M176.22,73.37a17,17,0,0,0,1-9.19,12.84,12.84,0,0,0-3.47-7.3,14.35,14.35,0,0,0-10-4.31c-4.37-.2-8.76,0-13.14,0-.6,0-.76.26-.76.83V97.61c0,.68.26.88.89.86h5.44c.94,0,.94,0,.94-1V81.88h1.38a23.77,23.77,0,0,0,8.48-.77C171.2,79.91,174.49,77.53,176.22,73.37ZM157.1,75.25V59.9c0-.68.2-.83.84-.86a22.15,22.15,0,0,1,6.4.27,7.05,7.05,0,0,1,5.67,7,15.661,15.661,0,0,1-.39,3.61,6.26,6.26,0,0,1-3.89,4.44C163,75.54,160.06,75.24,157.1,75.25Z" transform="translate(7626.5 -18031.5)"/><path class="c" d="M187.69,121.82a7.14,7.14,0,0,0-10.81,3,15.13,15.13,0,0,0-.91,8.89,9.68,9.68,0,0,0,2.34,5.19,7.15,7.15,0,0,0,11.47-1.8,14.52,14.52,0,0,0,1.36-6.46c-.07-.9-.1-1.8-.25-2.7a9,9,0,0,0-3.2-6.12Zm-1,14a3.29,3.29,0,0,1-3.15,2.19,3.52,3.52,0,0,1-3.29-2,11,11,0,0,1-1.15-5.45h-.18a40.475,40.475,0,0,1,.91-4.3,3.61,3.61,0,0,1,4.1-2.7,3.41,3.41,0,0,1,2.83,2.24,13,13,0,0,1-.03,10Z" transform="translate(7626.5 -18031.5)"/><path class="c" d="M169.77,131.51a5.64,5.64,0,0,0,3.09-5.93,4.91,4.91,0,0,0-4.31-4.51,45.48,45.48,0,0,0-6-.3h-1.7v19.84H164v-8a6,6,0,0,0,1,0,1.37,1.37,0,0,1,1.59.91c1.1,2.19,2.27,4.34,3.45,6.5.12.23.35.57.54.59,1.1.06,2.2,0,3.51,0-1.66-3-3.25-5.94-4.84-8.86A4.12,4.12,0,0,0,169.77,131.51Zm-2.62-1.89a8.169,8.169,0,0,1-1.2.14h-1.92v-6c1.49-.09,3-.33,4.34.54a2.85,2.85,0,0,1,1.13,3.1A2.66,2.66,0,0,1,167.15,129.62Z" transform="translate(7626.5 -18031.5)"/><path class="c" d="M152.55,121a42.41,42.41,0,0,0-5.41-.2,11.937,11.937,0,0,0-1.56.07v19.8h3.19v-7c1.27-.1,2.43-.1,3.55-.28a6,6,0,0,0,5.22-6.17C157.56,123.79,155.81,121.49,152.55,121Zm.17,9.09a6.18,6.18,0,0,1-3.95.42v-6.35c0-.15.31-.47.45-.45a15.66,15.66,0,0,1,2.83.21,2.74,2.74,0,0,1,2.15,2.71,3.27,3.27,0,0,1-1.48,3.43Z" transform="translate(7626.5 -18031.5)"/></g></svg>